# xmcd
# Copyright (C) 1995-1998 Ti Kan
#
# Track frame offsets:
#       150
#       14004
#       35390
#       53494
#       70553
#       89233
#       108785
#       120061
#       139818
#       156931
#       170888
#       186087
#       204628
#       220799
#
# Disc length: 3175 seconds
#
# Revision: 0
# Processed by: cddbd v1.5.2PL0 Copyright (c) Steve Scherf et al.
# Submitted via: CD-Import v1.0
#
DISCID=c00c650e
DTITLE=Martin Steiner - Al Otro Lado De La Promesa
DYEAR=1900
DGENRE=
TTITLE0=Dia Tan Feliz
TTITLE1=Al Otro Lado De La Promesa
TTITLE2=Luna
TTITLE3=Lost Rivers
TTITLE4=Nada Acontece
TTITLE5=Sandunguera
TTITLE6=A Mis Hijos
TTITLE7=Down The Boulevard
TTITLE8=Puerto Barrios
TTITLE9=Las Piedras
TTITLE10=La De Da Realidad
TTITLE11=Here Comes An Angel
TTITLE12=Cuéntame Maria
TTITLE13=Dame Tus Manos
EXTD=
EXTT0=
EXTT1=
EXTT2=
EXTT3=
EXTT4=
EXTT5=
EXTT6=
EXTT7=
EXTT8=
EXTT9=
EXTT10=
EXTT11=
EXTT12=
EXTT13=
PLAYORDER=
